<?xml version="1.0" standalone="no"?>
<!DOCTYPE svg PUBLIC "-//W3C//DTD SVG 20010904//EN"
 "http://www.w3.org/TR/2001/REC-SVG-20010904/DTD/svg10.dtd">
<svg version="1.0" xmlns="http://www.w3.org/2000/svg"
 width="512.000000pt" height="512.000000pt" viewBox="0 0 512.000000 512.000000"
 preserveAspectRatio="xMidYMid meet">

<g transform="translate(0.000000,512.000000) scale(0.100000,-0.100000)"
fill="#000000" stroke="none">
<path d="M205 5091 c-69 -17 -125 -62 -161 -131 -18 -34 -19 -112 -19 -2401
l0 -2366 30 -49 c19 -30 49 -60 79 -79 l49 -30 2360 -3 2360 -2 53 24 c58 27
107 84 125 145 7 25 9 784 7 2381 -3 2266 -4 2346 -22 2380 -26 49 -64 88
-111 113 l-40 22 -2340 2 c-1287 0 -2353 -2 -2370 -6z m1120 -1725 c172 -47
289 -145 370 -309 29 -59 45 -101 39 -106 -5 -5 -85 -25 -179 -45 -93 -21
-177 -39 -186 -42 -12 -3 -21 8 -33 39 -32 85 -117 147 -213 155 -149 13 -262
-76 -299 -233 -23 -100 -15 -326 15 -410 41 -114 126 -171 257 -169 129 2 206
65 255 211 12 37 26 63 33 60 6 -2 91 -28 189 -57 144 -43 177 -56 177 -71 0
-31 -46 -146 -81 -205 -19 -31 -63 -83 -99 -117 -123 -116 -287 -165 -515
-153 -240 12 -374 64 -492 190 -152 162 -211 361 -192 643 14 197 70 335 184
449 100 100 189 147 345 180 88 18 343 12 425 -10z m1615 -416 l0 -440 90 0
91 0 -3 -152 -3 -153 -87 -3 -88 -3 0 -129 0 -130 -175 0 -175 0 0 130 0 130
-360 0 -360 0 0 168 0 167 358 427 357 427 178 0 177 1 0 -440z m1249 396
c196 -51 335 -190 399 -396 45 -147 53 -386 18 -552 -37 -171 -163 -334 -310
-399 -115 -50 -202 -59 -608 -59 l-378 0 0 716 0 716 408 -5 c339 -3 418 -7
471 -21z"/>
<path d="M2398 2735 l-188 -220 187 -3 c102 -1 188 -1 190 1 2 2 2 103 1 223
l-3 219 -187 -220z"/>
<path d="M3752 2654 l3 -389 115 1 c64 0 132 6 153 13 55 19 101 63 128 123
20 47 24 72 27 213 4 177 -6 241 -52 319 -20 34 -40 51 -83 73 -52 25 -71 28
-176 32 l-117 3 2 -388z"/>
</g>
</svg>
